<svg xmlns="http://www.w3.org/2000/svg" width="200" height="120" viewBox="0 0 200 120">
  <!-- Main roads (thicker) -->
  <path d="M0 40 L200 40" stroke="#FFFFFF" stroke-width="3" opacity="0.2"/>
  <path d="M0 85 L200 85" stroke="#FFFFFF" stroke-width="2" opacity="0.25"/>
  <path d="M60 0 L60 120" stroke="#FFFFFF" stroke-width="3" opacity="0.3"/>
  <path d="M150 0 L150 120" stroke="#FFFFFF" stroke-width="2" opacity="0.25"/>
  
  <!-- Side streets (thinner) -->
  <path d="M0 15 L55 15" stroke="#FFFFFF" stroke-width="1.5" opacity="0.25"/>
  <path d="M65 15 L145 15" stroke="#FFFFFF" stroke-width="1.5" opacity="0.25"/>
  <path d="M155 20 L200 20" stroke="#FFFFFF" stroke-width="1.5" opacity="0.25"/>
  <path d="M0 65 L55 65" stroke="#FFFFFF" stroke-width="1.5" opacity="0.25"/>
  <path d="M65 60 L145 60" stroke="#FFFFFF" stroke-width="1.5" opacity="0.2"/>
  <path d="M155 70 L200 70" stroke="#FFFFFF" stroke-width="1.5" opacity="0.25"/>
  <path d="M0 105 L55 105" stroke="#FFFFFF" stroke-width="1.5" opacity="0.2"/>
  <path d="M65 100 L145 100" stroke="#FFFFFF" stroke-width="1.5" opacity="0.25"/>
  
  <!-- Vertical side streets -->
  <path d="M20 0 L20 35" stroke="#FFFFFF" stroke-width="1.5" opacity="0.2"/>
  <path d="M20 45 L20 80" stroke="#FFFFFF" stroke-width="1.5" opacity="0.2"/>
  <path d="M20 90 L20 120" stroke="#FFFFFF" stroke-width="1.5" opacity="0.2"/>
  <path d="M100 0 L100 35" stroke="#FFFFFF" stroke-width="1.5" opacity="0.25"/>
  <path d="M100 45 L100 80" stroke="#FFFFFF" stroke-width="1.5" opacity="0.2"/>
  <path d="M100 90 L100 120" stroke="#FFFFFF" stroke-width="1.5" opacity="0.2"/>
  <path d="M180 0 L180 35" stroke="#FFFFFF" stroke-width="1.5" opacity="0.2"/>
  <path d="M180 45 L180 120" stroke="#FFFFFF" stroke-width="1.5" opacity="0.25"/>
  
  <!-- Curved road -->
  <path d="M65 85 Q90 70 100 45" stroke="#FFFFFF" stroke-width="2" opacity="0.2" fill="none"/>
  
  <!-- Building blocks -->
  <rect x="5" y="45" width="12" height="15" fill="#FFFFFF" opacity="0.08" rx="1"/>
  <rect x="25" y="45" width="25" height="15" fill="#FFFFFF" opacity="0.1" rx="1"/>
  <rect x="70" y="45" width="25" height="10" fill="#FFFFFF" opacity="0.08" rx="1"/>
  <rect x="110" y="45" width="30" height="12" fill="#FFFFFF" opacity="0.1" rx="1"/>
  <rect x="160" y="45" width="15" height="20" fill="#FFFFFF" opacity="0.08" rx="1"/>
  <rect x="180" y="50" width="18" height="15" fill="#FFFFFF" opacity="0.1" rx="1"/>
  <rect x="5" y="90" width="12" height="12" fill="#FFFFFF" opacity="0.1" rx="1"/>
  <rect x="70" y="90" width="20" height="8" fill="#FFFFFF" opacity="0.08" rx="1"/>
  <rect x="110" y="92" width="15" height="10" fill="#FFFFFF" opacity="0.1" rx="1"/>
  <rect x="160" y="90" width="35" height="15" fill="#FFFFFF" opacity="0.08" rx="1"/>
  
  <!-- Park/open space -->
  <ellipse cx="130" cy="20" rx="12" ry="8" fill="#FFFFFF" opacity="0.06"/>
  
  <!-- Small details -->
  <circle cx="60" cy="40" r="3" fill="#FFFFFF" opacity="0.15"/>
  <circle cx="150" cy="85" r="2.5" fill="#FFFFFF" opacity="0.12"/>
</svg>