<?xml version="1.0" encoding="UTF-8"?>
<svg version="1.1" xmlns="http://www.w3.org/2000/svg" width="225" height="225">
<path d="M0 0 C74.25 0 148.5 0 225 0 C225 74.25 225 148.5 225 225 C150.75 225 76.5 225 0 225 C0 150.75 0 76.5 0 0 Z " fill="#FEFEFE" transform="translate(0,0)"/>
<path d="M0 0 C1.54534056 0.72044473 3.06634184 1.49480273 4.5625 2.3125 C14.38227464 7.3637304 24.42600463 9.71735789 35.3125 11.1875 C36.40111328 11.35185547 37.48972656 11.51621094 38.61132812 11.68554688 C50.02318128 13.28618727 61.49421719 13.61386603 73 14 C73.07041221 21.60792471 73.1232633 29.21581446 73.15543652 36.82399368 C73.17090064 40.35918166 73.1917718 43.89414214 73.22631836 47.42919922 C73.60163044 86.93919137 73.60163044 86.93919137 66.8125 105.6875 C66.35967651 106.98228271 66.35967651 106.98228271 65.89770508 108.30322266 C54.67491606 139.57513156 35.24666939 164.35394849 7 182 C6.0821875 182.58523437 5.164375 183.17046875 4.21875 183.7734375 C-1.20734555 187.04718181 -1.20734555 187.04718181 -4.296875 186.86328125 C-7.87267658 185.72129838 -10.94284211 183.94824334 -14.125 182 C-14.78588623 181.59845703 -15.44677246 181.19691406 -16.12768555 180.78320312 C-22.19282438 177.01827976 -27.63417424 172.70541643 -33 168 C-33.81726563 167.32710937 -34.63453125 166.65421875 -35.4765625 165.9609375 C-60.54445589 144.71291358 -75.68911127 111.12897481 -80 79 C-80.35294677 73.73459995 -80.35522476 68.49255284 -80.29296875 63.21875 C-80.28735055 61.78430635 -80.28309103 60.34985682 -80.28010559 58.91540527 C-80.26883122 55.20004442 -80.23952214 51.48505414 -80.20599365 47.76983643 C-80.17490941 43.95468149 -80.16151967 40.13946471 -80.14648438 36.32421875 C-80.11462905 28.88264635 -80.06365373 21.44137573 -80 14 C-78.97673111 13.95243057 -77.95346222 13.90486115 -76.89918518 13.85585022 C-40.49770335 12.63643102 -40.49770335 12.63643102 -6.87890625 -0.2734375 C-4.23581077 -1.29550769 -2.68400721 -0.81471405 0 0 Z " fill="#FEFEFE" transform="translate(116,20)"/>
<path d="M0 0 C2.49215672 1.22920145 4.93068164 2.49607736 7.375 3.8125 C25.42131656 13.12018626 44.68815488 13.98864003 64.59765625 14.55078125 C66.09575094 14.59501483 67.5938386 14.63948727 69.09191895 14.6842041 C72.72786906 14.79222185 76.36390354 14.89701176 80 15 C80.07018095 23.68556879 80.12315089 32.37103676 80.15543652 41.05682945 C80.17094888 45.09202621 80.19191524 49.12702595 80.22631836 53.16210938 C80.5125768 87.67941521 80.5125768 87.67941521 77 102 C76.65521606 103.46687256 76.65521606 103.46687256 76.3034668 104.96337891 C75.68901903 107.37998048 75.00144074 109.74789336 74.25 112.125 C73.99323486 112.95354492 73.73646973 113.78208984 73.47192383 114.63574219 C61.35439415 152.61007581 36.51209729 182.60893775 1.0859375 200.953125 C-3.09208555 202.37047966 -5.73822325 201.99666202 -9.76074219 200.22412109 C-11.73553295 199.23156421 -13.64871799 198.16809075 -15.5625 197.0625 C-16.26503906 196.65845947 -16.96757813 196.25441895 -17.69140625 195.83813477 C-51.61615358 175.89121302 -72.63217041 143.37714597 -83 106 C-86.37791961 92.84317921 -87.14778715 79.97243963 -87.09765625 66.46484375 C-87.09578768 64.97555082 -87.09436585 63.48625727 -87.09336853 61.9969635 C-87.08957789 58.10574603 -87.0797777 54.21456678 -87.06866455 50.32336426 C-87.05837559 46.34123247 -87.05385498 42.35909442 -87.04882812 38.37695312 C-87.03815182 30.58461813 -87.02111764 22.79231445 -87 15 C-86.17289017 14.97396194 -85.34578033 14.94792389 -84.49360657 14.9210968 C-81.37863002 14.82184033 -78.2637365 14.72033593 -75.14888 14.61738586 C-73.1563149 14.55218931 -71.16366803 14.48950683 -69.17102051 14.42687988 C-48.2361153 13.73004048 -26.32125505 11.98774456 -8.0625 0.625 C-4.43395035 -1.30035288 -3.82184693 -1.15895217 0 0 Z M-12.0625 10.3125 C-28.59425395 18.2074407 -45.88607395 20.33487336 -64 21.1875 C-65.56515569 21.26920126 -67.13026068 21.35187956 -68.6953125 21.43554688 C-72.46305617 21.63489853 -76.23122499 21.82125275 -80 22 C-80.09378936 30.12947451 -80.16430487 38.25871302 -80.20724869 46.3885994 C-80.22788741 50.1660026 -80.25575395 53.94302864 -80.30175781 57.72021484 C-80.81198716 100.77594299 -70.0796816 138.11101425 -40 170 C-30.59379096 179.52415524 -17.67740186 190.25134608 -5 195 C11.19129621 193.59063616 29.78732514 174.48176265 39.94921875 162.6484375 C53.07054513 146.74318268 62.26448586 128.51960837 68.375 108.875 C68.61371826 108.12516846 68.85243652 107.37533691 69.09838867 106.6027832 C74.15958544 89.37274879 73.2515349 71.3820578 73.1373291 53.62408447 C73.11658471 50.05019518 73.10767531 46.47627635 73.09765625 42.90234375 C73.07643659 35.9348249 73.04246549 28.96742101 73 22 C72.37854095 21.97854416 71.75708191 21.95708832 71.11679077 21.9349823 C59.21646392 21.50985774 47.41680021 21.05825539 35.625 19.3125 C34.45235596 19.14169922 33.27971191 18.97089844 32.0715332 18.79492188 C21.20475904 17.08821628 10.76721695 14.46665041 1.23828125 8.8125 C-4.13482243 5.80511748 -6.97782412 7.80064874 -12.0625 10.3125 Z " fill="#1E1E1C" transform="translate(116,12)"/>
</svg>
